<svg width="36" height="36" viewBox="0 0 36 36" fill="none" xmlns="http://www.w3.org/2000/svg">
<path d="M30.0391 5.39563C26.6796 5.19115 23.5354 4.38331 20.9074 3.07003C19.5826 2.41339 19.1304 2.15491 18.5062 1.71355C18.2261 1.50907 17.9676 1.34779 17.9136 1.35787C17.8704 1.35787 17.5046 1.60555 17.0842 1.90723C14.4029 3.81307 10.2031 5.13787 5.96088 5.39635L4.75488 5.47195V11.0606C4.75488 17.7796 4.84128 18.8351 5.6268 21.4307C6.58512 24.575 8.082 27.0626 10.4616 29.4638C12.4538 31.4776 14.3273 32.8341 16.9229 34.1373L17.9136 34.6435L18.9907 34.1373C20.2291 33.5664 21.8016 32.6188 23.1473 31.6173C24.4181 30.6806 26.7221 28.3327 27.6163 27.0842C29.0268 25.092 30.3192 22.0982 30.8038 19.697C31.1911 17.7804 31.2451 16.66 31.2451 11.0073V5.47267L30.0391 5.39707V5.39563ZM27.6271 23.3035L24.4397 28.9137L17.9784 28.8921L11.5171 28.8597L8.39448 23.3675C6.67152 20.3414 5.23944 17.7681 5.21784 17.6385C5.18544 17.488 5.35752 17.0676 5.7024 16.4541C7.51176 13.2451 11.2694 6.63331 11.3882 6.42883L11.5495 6.19195L18.0108 6.21355L24.4829 6.24595L24.881 6.94579C25.1071 7.33315 26.5284 9.83155 28.0469 12.5128C29.5654 15.1941 30.8146 17.4556 30.8146 17.5305C30.8146 17.6169 29.3825 20.2118 27.6271 23.302V23.3035Z" fill="white"/>
<path d="M26.3455 12.5242L22.9536 10.532C21.091 9.43324 19.4645 8.49652 19.3356 8.45404C19.2067 8.40004 18.8618 8.21716 18.571 8.03428C18.2693 7.8514 17.9892 7.7002 17.9359 7.7002C17.8826 7.7002 15.9977 8.78812 13.747 10.1122L9.6552 12.5242L9.6228 17.5318L9.6012 22.5286L13.7578 24.973L17.9251 27.4066L18.6358 27.0084C19.0231 26.7824 19.4004 26.5779 19.4544 26.5563C19.5192 26.5347 21.1018 25.6196 22.9867 24.5208L26.4002 22.5178L26.3786 17.521L26.3462 12.5242H26.3455ZM15.1898 19.9114V16.896L13.639 15.8189C12.7778 15.2372 12.0773 14.7209 12.0773 14.6669C12.0773 14.6237 12.8311 14.5913 13.7462 14.5913H15.4152V19.8675H20.5841L20.5733 17.251L20.5625 14.6453L22.2422 14.6129C23.1682 14.6021 23.922 14.6237 23.922 14.6669C23.922 14.7209 23.2114 15.2271 22.3603 15.8189L20.7986 16.8744V19.8682L20.3926 20.1879C20.0268 20.468 20.0304 20.4608 19.3558 20.9453C19.291 20.9777 18.972 21.2088 18.6343 21.4515C18.1469 21.8007 18.311 21.6826 17.9345 21.9144C17.8884 21.9425 17.2562 21.4623 16.5456 20.9129" fill="white"/>
</svg>
